[2026-03-04T05:10:44.535Z] Pipeline started.
[2026-03-04T05:10:45.265Z] Downloading YouTube: https://youtube.com/shorts/sbqu-Bw61Rs?si=Nn4xez_KJv-rjCSm
[2026-03-04T05:11:03.952Z] ElevenLabs TTS seg 0 [21m00Tcm4TlvDq8ikWAM]: "Изменить образ жизни?"
[2026-03-04T05:11:04.803Z] Seg 0 done (24285 bytes) ✅
[2026-03-04T05:11:04.995Z] Stretching seg 0: 1.49s→1.20s (rate=1.24)
[2026-03-04T05:11:05.535Z] ElevenLabs TTS seg 1 [2EiwWnXFnvU5JabPnv8n]: "Ты не выглядишь так, как будто покупаешь очень дор"
[2026-03-04T05:11:06.102Z] Seg 1 done (59812 bytes) ✅
[2026-03-04T05:11:06.310Z] Stretching seg 1: 3.71s→2.80s (rate=1.33)
[2026-03-04T05:11:06.934Z] ElevenLabs TTS seg 2 [21m00Tcm4TlvDq8ikWAM]: "Нет, я не покупаю очень дорогую одежду."
[2026-03-04T05:11:07.384Z] Seg 2 done (35988 bytes) ✅
[2026-03-04T05:11:07.721Z] ElevenLabs TTS seg 3 [2EiwWnXFnvU5JabPnv8n]: "Ты покупаешь вещи? Ты покупаешь то, что..."
[2026-03-04T05:11:08.205Z] Seg 3 done (58976 bytes) ✅
[2026-03-04T05:11:08.347Z] Stretching seg 3: 3.66s→2.80s (rate=1.31)
[2026-03-04T05:11:08.933Z] ElevenLabs TTS seg 4 [21m00Tcm4TlvDq8ikWAM]: "Нет, у меня маленькая квартира с матрасом на полу."
[2026-03-04T05:11:09.408Z] Seg 4 done (44347 bytes) ✅
[2026-03-04T05:11:09.636Z] Stretching seg 4: 2.74s→4.70s (rate=0.80)
[2026-03-04T05:11:10.291Z] ElevenLabs TTS seg 5 [21m00Tcm4TlvDq8ikWAM]: "Там я живу."
[2026-03-04T05:11:10.700Z] Seg 5 done (17598 bytes) ✅
[2026-03-04T05:11:10.902Z] Stretching seg 5: 1.07s→1.60s (rate=0.80)
[2026-03-04T05:11:11.372Z] Running FFmpeg: C:\Users\fullm\Downloads\dubverse-saas\backend\node_modules\ffmpeg-static\ffmpeg.exe -i C:\Users\fullm\Downloads\dubverse-saas\tmp\uploads\3f0eee42-f8b8-490b-938b-8c1f99a88436\audio.mp3 -i C:\Users\fullm\Downloads\dubverse-saas\tmp\uploads\3f0eee42-f8b8-490b-938b-8c1f99a88436\segments\seg_0.mp3 -i C:\Users\fullm\Downloads\dubverse-saas\tmp\uploads\3f0eee42-f8b8-490b-938b-8c1f99a88436\segments\seg_1.mp3 -i C:\Users\fullm\Downloads\dubverse-saas\tmp\uploads\3f0eee42-f8b8-490b-938b-8c1f99a88436\segments\seg_2.mp3 -i C:\Users\fullm\Downloads\dubverse-saas\tmp\uploads\3f0eee42-f8b8-490b-938b-8c1f99a88436\segments\seg_3.mp3 -i C:\Users\fullm\Downloads\dubverse-saas\tmp\uploads\3f0eee42-f8b8-490b-938b-8c1f99a88436\segments\seg_4.mp3 -i C:\Users\fullm\Downloads\dubverse-saas\tmp\uploads\3f0eee42-f8b8-490b-938b-8c1f99a88436\segments\seg_5.mp3 -filter_complex [1:a]aformat=sample_rates=44100:channel_layouts=stereo,adelay=0|0[s0];[2:a]aformat=sample_rates=44100:channel_layouts=stereo,adelay=1200|1200[s1];[3:a]aformat=sample_rates=44100:channel_layouts=stereo,adelay=4000|4000[s2];[4:a]aformat=sample_rates=44100:channel_layouts=stereo,adelay=6200|6200[s3];[5:a]aformat=sample_rates=44100:channel_layouts=stereo,adelay=9000|9000[s4];[6:a]aformat=sample_rates=44100:channel_layouts=stereo,adelay=13700|13700[s5];[0:a]aformat=sample_rates=44100:channel_layouts=stereo,volume=0[bg];[bg][s0][s1][s2][s3][s4][s5]amix=inputs=7:duration=first:dropout_transition=2,volume=7[mixed];[mixed]loudnorm=I=-23:TP=-1.5:LRA=11[out] -map [out] -acodec libmp3lame -ar 44100 -b:a 192k -y C:\Users\fullm\Downloads\dubverse-saas\tmp\uploads\3f0eee42-f8b8-490b-938b-8c1f99a88436\dubbed_audio.mp3
[2026-03-04T05:11:11.708Z] FFmpeg Err: Input #0, mp3, from 'C:\Users\fullm\Downloads\dubverse-saas\tmp\uploads\3f0eee42-f8b8-490b-938b-8c1f99a88436\audio.mp3':
  Metadata:
    major_brand     : mp42
    minor_version   : 0
    compatible_brands: isommp42
    encoder         : Lavf60.16.100
  Duration: 00:00:15.33, start: 0.025057, bitrate: 128 kb/s
  Stream #0:0: Audio: mp3, 44100 Hz, stereo, fltp, 128 kb/s
    Metadata:
      encoder         : Lavc60.31

[2026-03-04T05:11:11.712Z] FFmpeg Err: Input #1, mp3, from 'C:\Users\fullm\Downloads\dubverse-saas\tmp\uploads\3f0eee42-f8b8-490b-938b-8c1f99a88436\segments\seg_0.mp3':
  Metadata:
    encoder         : Lavf60.16.100
  Duration: 00:00:01.20, start: 0.025057, bitrate: 65 kb/s
  Stream #1:0: Audio: mp3, 44100 Hz, mono, fltp, 64 kb/s
Input #2, mp3, from 'C:\Users\fullm\Downloads\dubverse-saas\tmp\uploads\3f0eee42-f8b8-490b-938b-8c1f99a88436\segments\seg_1.mp3':
  Metadata:
    encoder         : Lavf60.16.100
  Duration: 00:00:02.82, start: 0.025057, bitrate: 64 kb/s
  Stream #2:0: Audio: mp3, 44100 Hz, mono, fltp, 64 kb/s
Input #3, mp3, from 'C:\Users\fullm\Downloads\dubverse-saas\tmp\uploads\3f0eee42-f8b8-490b-938b-8c1f99a88436\segments\seg_2.mp3':
  Metadata:
    encoder         : Lavf60.16.100
  Duration: 00:00:02.22, start: 0.025057, bitrate: 64 kb/s
  Stream #3:0: Audio: mp3, 44100 Hz, mono, fltp, 64 kb/s
Input #4, mp3, from 'C:\Users\fullm\Downloads\dubverse-saas\tmp\uploads\3f0eee42-f8b8-490b-938b-8c1f99a88436\segments\seg_3.mp3':
  Metadata:
    encoder         : Lavf60.16.100
  Duration: 00:00:02.82, start: 0.025057, bitrate: 64 kb/s
  Stream #4:0: Audio: mp3, 44100 Hz, mono, fltp, 64 kb/s

[2026-03-04T05:11:11.717Z] FFmpeg Err: Input #5, mp3, from 'C:\Users\fullm\Downloads\dubverse-saas\tmp\uploads\3f0eee42-f8b8-490b-938b-8c1f99a88436\segments\seg_4.mp3':
  Metadata:
    encoder         : Lavf60.16.100
  Duration: 00:00:03.40, start: 0.025057, bitrate: 64 kb/s
  Stream #5:0: Audio: mp3, 44100 Hz, mono, fltp, 64 kb/s
Input #6, mp3, from 'C:\Users\fullm\Downloads\dubverse-saas\tmp\uploads\3f0eee42-f8b8-490b-938b-8c1f99a88436\segments\seg_5.mp3':
  Metadata:
    encoder         : Lavf60.16.100
  Duration: 00:00:01.31, start: 0.025057, bitrate: 65 kb/s
  Stream #6:0: Audio: mp3, 44100 Hz, mono, fltp, 64 kb/s

[2026-03-04T05:11:11.723Z] FFmpeg Err: Stream mapping:
  Stream #0:0 (mp3float) -> aformat:default
  Stream #1:0 (mp3float) -> aformat:default
  Stream #2:0 (mp3float) -> aformat:default
  Stream #3:0 (mp3float) -> aformat:default
  Stream #4:0 (mp3float) -> aformat:default
  Stream #5:0 (mp3float) -> aformat:default
  Stream #6:0 (mp3float) -> aformat:default
  loudnorm:default -> Stream #0:0 (libmp3lame)

[2026-03-04T05:11:11.909Z] FFmpeg Err: Output #0, mp3, to 'C:\Users\fullm\Downloads\dubverse-saas\tmp\uploads\3f0eee42-f8b8-490b-938b-8c1f99a88436\dubbed_audio.mp3':
  Metadata:
    major_brand     : mp42
    minor_version   : 0
    compatible_brands: isommp42
    TSSE            : Lavf60.16.100
  Stream #0:0: Audio: mp3, 44100 Hz, stereo, fltp, 192 kb/s
    Metadata:
      encoder         : Lavc60.31.102 libmp3lame

[2026-03-04T05:11:11.915Z] FFmpeg Err: size=       0kB time=-00:00:00.02 bitrate=  -0.0kbits/s speed=N/A    
[2026-03-04T05:11:12.348Z] FFmpeg Err: size=     130kB time=00:00:05.48 bitrate= 194.0kbits/s speed=8.71x    
[2026-03-04T05:11:12.917Z] FFmpeg Err: size=     256kB time=00:00:12.27 bitrate= 170.8kbits/s speed=10.2x    
[2026-03-04T05:11:12.983Z] FFmpeg Err: [out#0/mp3 @ 00000245260723c0] video:0kB audio:359kB subtitle:0kB other streams:0kB global headers:0kB muxing overhead: 0.207601%
size=     360kB time=00:00:15.38 bitrate= 191.8kbits/s speed=12.2x    

[2026-03-04T05:11:15.101Z] Running FFmpeg: C:\Users\fullm\Downloads\dubverse-saas\backend\node_modules\ffmpeg-static\ffmpeg.exe -i C:\Users\fullm\Downloads\dubverse-saas\tmp\uploads\3f0eee42-f8b8-490b-938b-8c1f99a88436\video.mp4 -i C:\Users\fullm\Downloads\dubverse-saas\tmp\uploads\3f0eee42-f8b8-490b-938b-8c1f99a88436\dubbed_audio.mp3 -map 0:v:0 -map 1:a:0 -c:v copy -c:a aac -b:a 192k -shortest -y C:\Users\fullm\Downloads\dubverse-saas\tmp\uploads\3f0eee42-f8b8-490b-938b-8c1f99a88436\final_dubbed.mp4
[2026-03-04T05:11:15.203Z] FFmpeg Err: Input #0, mov,mp4,m4a,3gp,3g2,mj2, from 'C:\Users\fullm\Downloads\dubverse-saas\tmp\uploads\3f0eee42-f8b8-490b-938b-8c1f99a88436\video.mp4':
  Metadata:
    major_brand     : mp42
    minor_version   : 0
    compatible_brands: isommp42
    creation_time   : 2022-10-02T15:04:51.000000Z
  Duration: 00:00:15.30, start: 0.000000, bitrate: 410 kb/s
  Stream #0:0[0x1](und): Video: h264 (Main) (avc1 / 0x31637661), yuv420p(tv, bt709, progressive), 360x640 [SAR 1:1 DAR 9:16], 278 kb/s, 30 fps, 30 tbr, 15360 tbn (default)
    Metadata:
      creation_time   : 2022-10-02T15:04:51.000000Z
      handler_name    : ISO Media file produced by Google Inc. Created on: 10/02/2022.
      vendor_id       : [0][0][0][0]
  Stream #0:1[0x2](eng): Audio: aac (LC) (mp4a / 0x6134706D), 44100 Hz, stereo, fltp, 127 kb/s (default)
    Metadata:
      creation_time   : 2022-10-02T15:04:51.000000Z
      handler_name    : ISO Media file produced by Google Inc. Created on: 10/02/2022.
      vendor_id       : [0][0][0][0]

[2026-03-04T05:11:15.207Z] FFmpeg Err: Input #1, mp3, from 'C:\Users\fullm\Downloads\dubverse-saas\tmp\uploads\3f0eee42-f8b8-490b-938b-8c1f99a88436\dubbed_audio.mp3':
  Metadata:
    major_brand     : mp42
    minor_version   : 0
    compatible_brands: isommp42
    encoder         : Lavf60.16.100
  Duration: 00:00:15.33, start: 0.025057, bitrate: 192 kb/s
  Stream #1:0: Audio: mp3, 44100 Hz, stereo, fltp, 192 kb/s
    Metadata:
      encoder         : Lavc60.31
Stream mapping:
  Stream #0:0 -> #0:0 (copy)
  Stream #1:0 -> #0:1 (mp3 (mp3float) -> aac (native))

[2026-03-04T05:11:15.215Z] FFmpeg Err: Output #0, mp4, to 'C:\Users\fullm\Downloads\dubverse-saas\tmp\uploads\3f0eee42-f8b8-490b-938b-8c1f99a88436\final_dubbed.mp4':
  Metadata:
    major_brand     : mp42
    minor_version   : 0
    compatible_brands: isommp42
    encoder         : Lavf60.16.100
  Stream #0:0(und): Video: h264 (Main) (avc1 / 0x31637661), yuv420p(tv, bt709, progressive), 360x640 [SAR 1:1 DAR 9:16], q=2-31, 278 kb/s, 30 fps, 30 tbr, 15360 tbn (default)
    Metadata:
      creation_time   : 2022-10-02T15:04:51.000000Z
      handler_name    : ISO Media file produced by Google Inc. Created on: 10/02/2022.
      vendor_id       : [0][0][0][0]

[2026-03-04T05:11:15.218Z] FFmpeg Err:   Stream #0:1: Audio: aac (LC) (mp4a / 0x6134706D), 44100 Hz, stereo, fltp, 192 kb/s
    Metadata:
      encoder         : Lavc60.31.102 aac
size=       0kB time=N/A bitrate=N/A speed=N/A    
[2026-03-04T05:11:15.706Z] FFmpeg Err: size=     256kB time=00:00:06.66 bitrate= 314.6kbits/s speed=13.3x    
[2026-03-04T05:11:16.100Z] FFmpeg Err: [out#0/mp4 @ 000002048ddfbe00] video:520kB audio:325kB subtitle:0kB other streams:0kB global headers:0kB muxing overhead: 1.840526%
size=     861kB time=00:00:15.27 bitrate= 461.9kbits/s speed=17.1x    

[2026-03-04T05:11:16.102Z] FFmpeg Err: [aac @ 000002048dbce940] Qavg: 10018.058

[2026-03-04T05:11:17.687Z] ✅ Pipeline finished successfully!
